<?xml version="1.0" encoding="utf-8"?>
<!-- Generator: Adobe Illustrator 19.0.0, SVG Export Plug-In . SVG Version: 6.00 Build 0)  -->
<svg version="1.1" id="Layer_1" xmlns="http://www.w3.org/2000/svg" xmlns:xlink="http://www.w3.org/1999/xlink" x="0px" y="0px"
	 viewBox="0 0 96 96" style="enable-background:new 0 0 96 96;" xml:space="preserve">
<style type="text/css">
	.st0{fill:#333333;}
</style>
<g id="XMLID_4_">
	<path id="XMLID_8_" class="st0" d="M48,18c-9.5,0-17.3,7.7-17.3,17.3c0,6.1,2.1,9.7,4.6,13c2.6,3.3,5.7,6.2,7.5,10.7
		c2,5,2.9,9.9,3.6,13.5c0.3,1.8,0.7,3.3,1,4.3c0.2,0.5,0.3,0.8,0.4,1C48,78,48,78,48,78c0,0,0,0,0.1-0.1c0.1-0.2,0.3-0.5,0.4-1
		c0.3-1,0.6-2.5,1-4.3c0.7-3.6,1.6-8.6,3.6-13.5c1.8-4.5,5-7.4,7.5-10.7c2.6-3.3,4.6-6.9,4.6-13C65.3,25.7,57.5,18,48,18L48,18z
		 M48,29.4c3.2,0,5.8,2.6,5.8,5.8c0,3.2-2.6,5.8-5.8,5.8c-3.2,0-5.8-2.6-5.8-5.8C42.2,32,44.8,29.4,48,29.4z"/>
</g>
</svg>
